<svg width="21" height="22" viewBox="0 0 21 22" fill="none" xmlns="http://www.w3.org/2000/svg">
<circle cx="10.5" cy="11" r="10.5" fill="white"/>
<path d="M7.3996 15.5C7.30627 15.5 7.22693 15.472 7.1616 15.416C7.1056 15.3507 7.0776 15.2713 7.0776 15.178V14.73C7.0776 14.646 7.10093 14.5527 7.1476 14.45C7.19427 14.3473 7.2876 14.2353 7.4276 14.114L10.3956 11.146C10.8623 10.754 11.2356 10.4133 11.5156 10.124C11.7956 9.82533 11.9916 9.55 12.1036 9.298C12.2249 9.03667 12.2856 8.766 12.2856 8.486C12.2856 7.954 12.1363 7.534 11.8376 7.226C11.5389 6.90867 11.0956 6.75 10.5076 6.75C9.93827 6.75 9.49494 6.918 9.1776 7.254C8.8696 7.59 8.67827 8.01 8.6036 8.514C8.58493 8.63533 8.5336 8.71933 8.4496 8.766C8.37494 8.81267 8.30494 8.836 8.2396 8.836H7.5116C7.3156 8.836 7.2176 8.74733 7.2176 8.57C7.23627 8.094 7.36693 7.62267 7.6096 7.156C7.85227 6.68933 8.2116 6.30667 8.6876 6.008C9.17293 5.7 9.7796 5.546 10.5076 5.546C11.2449 5.546 11.8469 5.68133 12.3136 5.952C12.7896 6.21333 13.1396 6.56333 13.3636 7.002C13.5876 7.44067 13.6996 7.92133 13.6996 8.444C13.6996 9.06 13.5409 9.606 13.2236 10.082C12.9156 10.558 12.4723 11.048 11.8936 11.552L9.2056 14.282H13.5736C13.7976 14.282 13.9096 14.3893 13.9096 14.604V15.178C13.9096 15.3927 13.7976 15.5 13.5736 15.5H7.3996Z" fill="black"/>
</svg>
