<svg width="195" height="130" viewBox="0 0 195 130" fill="none" xmlns="http://www.w3.org/2000/svg">
<path d="M106.027 48.98C106.267 52.34 106.387 57.74 106.387 65.18C106.387 72.5 106.267 77.78 106.027 81.02C105.187 95.3 100.447 107 91.8069 116.12C83.2869 125.24 70.5069 129.8 53.4669 129.8C36.4269 129.8 23.5869 125.24 14.9469 116.12C6.42688 107 1.74688 95.3 0.906875 81.02C0.666875 74.54 0.546875 69.26 0.546875 65.18C0.546875 61.1 0.666875 55.7 0.906875 48.98C1.74688 34.7 6.42688 23 14.9469 13.88C23.5869 4.76 36.4269 0.199993 53.4669 0.199993C70.5069 0.199993 83.2869 4.76 91.8069 13.88C100.447 23 105.187 34.7 106.027 48.98ZM72.7269 49.88C72.3669 43.28 70.7469 38.18 67.8669 34.58C64.9869 30.86 60.1869 29 53.4669 29C46.7469 29 41.9469 30.86 39.0669 34.58C36.1869 38.18 34.5669 43.28 34.2069 49.88C33.9669 56.36 33.8469 61.34 33.8469 64.82C33.8469 68.06 33.9669 73.16 34.2069 80.12C34.4469 86.72 36.0069 91.88 38.8869 95.6C41.8869 99.2 46.7469 101 53.4669 101C60.1869 101 64.9869 99.2 67.8669 95.6C70.8669 91.88 72.4869 86.72 72.7269 80.12C72.9669 76.64 73.0869 71.54 73.0869 64.82C73.0869 58.1 72.9669 53.12 72.7269 49.88ZM119.253 42.5C118.653 41.78 118.353 40.82 118.353 39.62C118.353 37.94 119.013 36.62 120.333 35.66L159.033 5.95999C159.273 5.72 159.873 5.24 160.833 4.51999C161.913 3.79999 162.993 3.19999 164.073 2.71999C165.153 2.23999 166.233 1.99999 167.313 1.99999H189.273C190.593 1.99999 191.733 2.47999 192.693 3.43999C193.653 4.4 194.133 5.54 194.133 6.85999V123.14C194.133 124.46 193.653 125.6 192.693 126.56C191.733 127.52 190.593 128 189.273 128H165.693C164.373 128 163.233 127.52 162.273 126.56C161.313 125.6 160.833 124.46 160.833 123.14V44.48L139.413 60.68C138.453 61.4 137.433 61.76 136.353 61.76C134.793 61.76 133.533 61.1 132.573 59.78L119.253 42.5Z" fill="white"/>
</svg>
